<svg width="24" height="24" viewBox="0 0 24 24" fill="none" xmlns="http://www.w3.org/2000/svg">
<path d="M10.999 4.70148C10.9988 4.5622 10.9574 4.42611 10.8799 4.31037C10.8024 4.19463 10.6924 4.10443 10.5637 4.05116C10.4351 3.99789 10.2935 3.98393 10.1569 4.01105C10.0203 4.03816 9.89473 4.10514 9.79615 4.20352L6.41244 7.58623C6.28186 7.7176 6.1265 7.82174 5.95537 7.89263C5.78425 7.96352 5.60075 7.99974 5.41553 7.9992H2.99973C2.73454 7.9992 2.48021 8.10455 2.29269 8.29207C2.10516 8.47959 1.99982 8.73392 1.99982 8.99911V14.9986C1.99982 15.2638 2.10516 15.5181 2.29269 15.7056C2.48021 15.8932 2.73454 15.9985 2.99973 15.9985H5.41553C5.60075 15.998 5.78425 16.0342 5.95537 16.1051C6.1265 16.176 6.28186 16.2801 6.41244 16.4115L9.79515 19.7952C9.89374 19.894 10.0194 19.9613 10.1563 19.9886C10.2932 20.0158 10.4351 20.0019 10.564 19.9484C10.6929 19.895 10.8031 19.8045 10.8806 19.6884C10.958 19.5723 10.9992 19.4358 10.999 19.2962V4.70148Z" stroke="#9810FA" stroke-width="1.99983" stroke-linecap="round" stroke-linejoin="round"/>
<path d="M15.9987 8.99927C16.6478 9.86475 16.9987 10.9174 16.9987 11.9993C16.9987 13.0811 16.6478 14.1338 15.9987 14.9993" stroke="#9810FA" stroke-width="1.99983" stroke-linecap="round" stroke-linejoin="round"/>
<path d="M19.3624 18.3624C20.198 17.5268 20.8609 16.5347 21.3132 15.4428C21.7654 14.351 21.9982 13.1808 21.9982 11.999C21.9982 10.8171 21.7654 9.64692 21.3132 8.55507C20.8609 7.46323 20.198 6.47116 19.3624 5.6355" stroke="#9810FA" stroke-width="1.99983" stroke-linecap="round" stroke-linejoin="round"/>
</svg>
