<svg width="24" height="24" viewBox="0 0 24 24" fill="none" xmlns="http://www.w3.org/2000/svg">
<path d="M15.7059 21.2919C15.5184 21.4793 15.2641 21.5847 14.9989 21.5847C14.7338 21.5847 14.4795 21.4793 14.2919 21.2919L12.7059 19.7059C12.5185 19.5183 12.4131 19.264 12.4131 18.9989C12.4131 18.7337 12.5185 18.4794 12.7059 18.2919L18.2919 12.7059C18.4795 12.5184 18.7338 12.4131 18.9989 12.4131C19.2641 12.4131 19.5184 12.5184 19.7059 12.7059L21.2919 14.2919C21.4794 14.4794 21.5847 14.7337 21.5847 14.9989C21.5847 15.264 21.4794 15.5183 21.2919 15.7059L15.7059 21.2919Z" stroke="#E60076" stroke-width="1.99983" stroke-linecap="round" stroke-linejoin="round"/>
<path d="M17.9986 12.9991L16.6238 6.12565C16.5864 5.93865 16.4963 5.76624 16.3641 5.62876C16.2319 5.49128 16.0632 5.39446 15.8778 5.34972L3.2349 2.028C3.06834 1.98773 2.89423 1.99094 2.72927 2.03732C2.56431 2.0837 2.41404 2.1717 2.29287 2.29287C2.1717 2.41404 2.0837 2.56431 2.03732 2.72927C1.99094 2.89423 1.98773 3.06834 2.028 3.2349L5.34972 15.8778C5.39446 16.0632 5.49128 16.2319 5.62876 16.3641C5.76624 16.4963 5.93865 16.5864 6.12565 16.6238L12.9991 17.9986" stroke="#E60076" stroke-width="1.99983" stroke-linecap="round" stroke-linejoin="round"/>
<path d="M2.29999 2.30005L9.58599 9.58605" stroke="#E60076" stroke-width="1.99983" stroke-linecap="round" stroke-linejoin="round"/>
<path d="M10.9992 12.9993C12.1038 12.9993 12.9992 12.1038 12.9992 10.9993C12.9992 9.8947 12.1038 8.99927 10.9992 8.99927C9.89464 8.99927 8.99921 9.8947 8.99921 10.9993C8.99921 12.1038 9.89464 12.9993 10.9992 12.9993Z" stroke="#E60076" stroke-width="1.99983" stroke-linecap="round" stroke-linejoin="round"/>
</svg>
