<svg width="20" height="20" viewBox="0 0 20 20" fill="none" xmlns="http://www.w3.org/2000/svg">
<path d="M9.99638 5.83105V17.4935" stroke="white" stroke-width="1.66606" stroke-linecap="round" stroke-linejoin="round"/>
<path d="M2.4991 14.9945C2.27816 14.9945 2.06628 14.9067 1.91005 14.7505C1.75383 14.5943 1.66607 14.3824 1.66607 14.1615V3.33206C1.66607 3.11112 1.75383 2.89924 1.91005 2.74301C2.06628 2.58679 2.27816 2.49902 2.4991 2.49902H6.66426C7.54799 2.49902 8.39553 2.85009 9.02043 3.47498C9.64532 4.09988 9.99638 4.94742 9.99638 5.83115C9.99638 4.94742 10.3474 4.09988 10.9723 3.47498C11.5972 2.85009 12.4448 2.49902 13.3285 2.49902H17.4937C17.7146 2.49902 17.9265 2.58679 18.0827 2.74301C18.2389 2.89924 18.3267 3.11112 18.3267 3.33206V14.1615C18.3267 14.3824 18.2389 14.5943 18.0827 14.7505C17.9265 14.9067 17.7146 14.9945 17.4937 14.9945H12.4955C11.8327 14.9945 11.197 15.2578 10.7284 15.7265C10.2597 16.1951 9.99638 16.8308 9.99638 17.4936C9.99638 16.8308 9.73309 16.1951 9.26442 15.7265C8.79575 15.2578 8.16009 14.9945 7.49729 14.9945H2.4991Z" stroke="white" stroke-width="1.66606" stroke-linecap="round" stroke-linejoin="round"/>
</svg>
